# xmcd
#
# Track frame offsets: 
#        150
#        14827
#        27098
#        48899
#        62670
#        76049
#        92496
#        105794
#        125846
#        155234
#        172240
#        186293
#        217736
#
# Disc length: 3105 seconds
#
# Revision: 1
# Processed by: cddbd v1.5.2PL0 Copyright (c) Steve Scherf et al.
# Submitted via: ExactAudioCopy v1.1
#
DISCID=a50c1f0d
DTITLE=Duke Robillard And His All-Star Combo - Blues Full Circle
DYEAR=2016
DGENRE=Blues
TTITLE0=Lay A Little Lovin' On Me
TTITLE1=Rain Keep Falling
TTITLE2=Mourning Dove
TTITLE3=No More Tears
TTITLE4=Last Night
TTITLE5=Fool About My Money
TTITLE6=The Mood Room
TTITLE7=I've Got A Feelin' That You're Foolin'
TTITLE8=Schuffin' And Scuffin'
TTITLE9=Blues For Eddie Jones
TTITLE10=You Used To Be Sugar
TTITLE11=Worth Waitin' On
TTITLE12=Come With Me Baby
EXTD=
EXTT0=
EXTT1=
EXTT2=
EXTT3=
EXTT4=
EXTT5=
EXTT6=
EXTT7=
EXTT8=
EXTT9=
EXTT10=
EXTT11=
EXTT12=
PLAYORDER=
